<svg id="Layer_1" data-name="Layer 1" xmlns="http://www.w3.org/2000/svg" viewBox="0 0 51.93 99.99"><path d="M72.32,24.16c0-1.14-.17-2.27-.24-3.4a1.5,1.5,0,0,0,0-.3.26.26,0,0,0-.31-.2h0a1.11,1.11,0,0,0-.3.08c-.33.13-.66.25-1,.35l-1,.29a47.62,47.62,0,0,1-5.69,1.1c-3.18.44-6.4.63-9.61.81l-2.25.1q-2.25.07-4.5,0H45.1q-2.18-.08-4.35-.24c-1.45-.11-3-.24-4.63-.4-.71-.07-1.43-.14-2.14-.24a22.46,22.46,0,0,1-3.15-.61,12.16,12.16,0,0,1-3-1.26c-.43-.26-.57-.15-.6.06a2.94,2.94,0,0,0,0,.42c0,1.5-.12,3-.16,4.5-.07,2.25-.18,4.5-.21,6.75,0,1.49-.11,3-.11,4.48v.06c0,1.48.17,3,.24,4.44,0,.75.19,1.49.24,2.24a85.18,85.18,0,0,0,1,8.57c.27,1.6.6,3.21,1,4.8.3,1.22.58,2.45.85,3.68.54,2.46,1,4.93,1.47,7.41.23,1.24.44,2.48.67,3.72s.38,2.27.59,3.4a65.68,65.68,0,0,1,.84,6.85c0,.58-.1,1.15-.1,1.73h0c0,.58.19,1.16.17,1.74-.06,2,0,3.94-.11,5.9s-.27,4.15-.39,6.23a4.34,4.34,0,0,0,0,.51,2.62,2.62,0,0,0,.09.56,2.32,2.32,0,0,0,.22.57,2.63,2.63,0,0,0,.6.77,4.49,4.49,0,0,0,.76.53,12.48,12.48,0,0,0,2.5,1,20.14,20.14,0,0,0,2.64.6,59.9,59.9,0,0,0,14.8.6c1.65-.14,3.29-.35,4.93-.63a18,18,0,0,0,3.53-.91,10.1,10.1,0,0,0,2-1,2.82,2.82,0,0,0,1-1,2.11,2.11,0,0,0,.22-.64,3.22,3.22,0,0,0,0-.76q-.17-2-.3-3.93C66.12,92.26,66,91,66,89.61a7.65,7.65,0,0,0-.06-1.17c-.09-1.56-.19-3.14-.19-4.7a18.32,18.32,0,0,1,.1-2.34A7.5,7.5,0,0,1,66,80.24q.88-5.65,2-11.26t2.3-11.21c.25-1.2.53-2.39.8-3.58s.52-2.39.73-3.6q.21-1.2.33-2.43c.17-1.67.28-3.35.34-5.07,0-1.14.08-2.31.1-3.5s0-2.42,0-3.68V30.59C72.51,28.55,72.39,26.36,72.32,24.16Z" transform="translate(-24 -5.99)"/><path d="M74.94,15.05a6.06,6.06,0,0,0-3.11-5A20.17,20.17,0,0,0,66,7.63C60.15,6.12,54.23,5.94,48.28,6A56.69,56.69,0,0,0,34.86,7.54c-3.29.84-6.49,1.89-8.88,4.52a2.47,2.47,0,0,0-.74,1.48c-.26,3-.56,6-.81,9a192.67,192.67,0,0,0-.29,20.25,57.71,57.71,0,0,0,.92,10.82c1.48,6.9,3,13.77,4.33,20.71A53.6,53.6,0,0,1,30.45,86.7c-.17,3.73-.38,7.45-.7,11.17a4.55,4.55,0,0,0,2.58,4.61,25.43,25.43,0,0,0,7.16,2.66c4,1,8.11.78,12.2.84a36.46,36.46,0,0,0,9.81-1.18,17.41,17.41,0,0,0,6.94-3.13A3.75,3.75,0,0,0,70,98a39.79,39.79,0,0,1-.33-4.36c-.25-4.83-.68-9.67,0-14.48.66-4.28,1.5-8.54,2.35-12.78C73,61.74,74.22,57.15,75,52.51c1.1-6.19.79-12.47.93-18.09C75.94,27.52,75.4,21.29,74.94,15.05Zm-.86,22.32a117,117,0,0,1-.56,12.83,80,80,0,0,1-1.88,9.06q-2.33,10-4,20.13a34.14,34.14,0,0,0-.23,6.39c.1,4,.2,8,.63,11.92.18,1.65-.84,2.56-2.05,3.26a20.23,20.23,0,0,1-7.28,2.24,56.21,56.21,0,0,1-19.19-.27,18.18,18.18,0,0,1-6.1-2.13,3.12,3.12,0,0,1-1.71-3.15c.27-3.86.42-7.73.65-11.6.28-4.77-.67-9.4-1.54-14C29.58,65.46,27.91,59,26.55,52.4a38.32,38.32,0,0,1-.67-6.14,185.37,185.37,0,0,1,.47-27.58c.15-1.38.29-2.76.32-4.14a3.15,3.15,0,0,1,1.65-2.78A20.6,20.6,0,0,1,35.42,9a80.44,80.44,0,0,1,26.09-.53,28.11,28.11,0,0,1,7.7,2,21.94,21.94,0,0,1,2,1,3.35,3.35,0,0,1,1.79,3A182.9,182.9,0,0,1,74.08,37.37Z" transform="translate(-24 -5.99)"/><path d="M70.83,15.56l-.18-1.12h0l-.15-.8h0l0-.31c-30.93,5.1-40.56-.46-40.66-.51l-1.16,1.93c.34.21,5.14,3,18.52,3A146.87,146.87,0,0,0,70.83,15.56Z" transform="translate(-24 -5.99)"/></svg>